<svg width="30" height="30" viewBox="0 0 30 30" fill="none" xmlns="http://www.w3.org/2000/svg">
<path d="M24.5738 11.7175L15.8238 4.06129C15.5958 3.86157 15.3031 3.75146 15 3.75146C14.6969 3.75146 14.4042 3.86157 14.1763 4.06129L5.42625 11.7175C5.29221 11.835 5.18483 11.9797 5.11132 12.1421C5.0378 12.3044 4.99985 12.4806 5 12.6588V23.7488C5 24.0803 5.1317 24.3982 5.36612 24.6327C5.60054 24.8671 5.91848 24.9988 6.25 24.9988H11.25C11.5815 24.9988 11.8995 24.8671 12.1339 24.6327C12.3683 24.3982 12.5 24.0803 12.5 23.7488V18.7488C12.5 18.4173 12.6317 18.0993 12.8661 17.8649C13.1005 17.6305 13.4185 17.4988 13.75 17.4988H16.25C16.5815 17.4988 16.8995 17.6305 17.1339 17.8649C17.3683 18.0993 17.5 18.4173 17.5 18.7488V23.7488C17.5 24.0803 17.6317 24.3982 17.8661 24.6327C18.1005 24.8671 18.4185 24.9988 18.75 24.9988H23.75C24.0815 24.9988 24.3995 24.8671 24.6339 24.6327C24.8683 24.3982 25 24.0803 25 23.7488V12.6588C25.0002 12.4806 24.9622 12.3044 24.8887 12.1421C24.8152 11.9797 24.7078 11.835 24.5738 11.7175Z" stroke="#696671" stroke-width="2.5" stroke-linecap="round" stroke-linejoin="round"/>
</svg>
