<svg width="24" height="24" viewBox="0 0 24 24" fill="none" xmlns="http://www.w3.org/2000/svg">
<path fill-rule="evenodd" clip-rule="evenodd" d="M4.85494 7.49581C4.91068 7.43987 4.97692 7.39549 5.04985 7.36521C5.12278 7.33492 5.20097 7.31934 5.27994 7.31934C5.35891 7.31934 5.4371 7.33492 5.51003 7.36521C5.58296 7.39549 5.6492 7.43987 5.70494 7.49581L12.4799 14.2718L19.2549 7.49581C19.3677 7.38309 19.5205 7.31977 19.6799 7.31977C19.8393 7.31977 19.9922 7.38309 20.1049 7.49581C20.2177 7.60853 20.281 7.7614 20.281 7.92081C20.281 8.08022 20.2177 8.23309 20.1049 8.34581L12.9049 15.5458C12.8492 15.6017 12.783 15.6461 12.71 15.6764C12.6371 15.7067 12.5589 15.7223 12.4799 15.7223C12.401 15.7223 12.3228 15.7067 12.2498 15.6764C12.1769 15.6461 12.1107 15.6017 12.0549 15.5458L4.85494 8.34581C4.799 8.29007 4.75462 8.22383 4.72434 8.1509C4.69406 8.07797 4.67847 7.99978 4.67847 7.92081C4.67847 7.84184 4.69406 7.76365 4.72434 7.69072C4.75462 7.61779 4.799 7.55155 4.85494 7.49581Z" fill="#28262C"/>
</svg>
