<svg width="60" height="61" viewBox="0 0 60 61" fill="none" xmlns="http://www.w3.org/2000/svg">
<path d="M30 0.194092C24.0666 0.194092 18.2664 1.95356 13.3329 5.25C8.39943 8.54644 4.55426 13.2318 2.28363 18.7136C0.0129984 24.1954 -0.581101 30.2274 0.576455 36.0468C1.73401 41.8662 4.59123 47.2117 8.78681 51.4073C12.9824 55.6029 18.3279 58.4601 24.1473 59.6176C29.9667 60.7752 35.9987 60.1811 41.4805 57.9105C46.9623 55.6398 51.6476 51.7947 54.9441 46.8612C58.2405 41.9277 60 36.1275 60 30.1941C59.9845 22.2423 56.8189 14.6207 51.1961 8.99795C45.5734 3.37521 37.9518 0.209542 30 0.194092ZM39.6339 31.8956L28.0954 42.2802C27.6675 42.6651 27.1139 42.8807 26.5385 42.8864C26.218 42.8877 25.9009 42.8215 25.6078 42.6921C25.3146 42.5628 25.052 42.3732 24.8369 42.1356C24.6322 41.912 24.4735 41.6503 24.3699 41.3653C24.2664 41.0803 24.22 40.7778 24.2334 40.4749C24.2468 40.172 24.3198 39.8747 24.4482 39.6C24.5766 39.3254 24.7578 39.0787 24.9815 38.8741L34.6154 30.1941L24.9815 21.511C24.5541 21.0922 24.3061 20.5238 24.2897 19.9256C24.2734 19.3274 24.4901 18.7463 24.894 18.3048C25.298 17.8633 25.8576 17.596 26.4549 17.5593C27.0522 17.5226 27.6404 17.7193 28.0954 18.1079L39.6339 28.4925C39.8698 28.7087 40.0583 28.9717 40.1872 29.2646C40.3161 29.5575 40.3826 29.874 40.3826 30.1941C40.3826 30.5141 40.3161 30.8307 40.1872 31.1236C40.0583 31.4165 39.8698 31.6794 39.6339 31.8956Z" fill="url(#paint0_linear_92_200)"/>
<defs>
<linearGradient id="paint0_linear_92_200" x1="30" y1="0.194092" x2="30" y2="60.1941" gradientUnits="userSpaceOnUse">
<stop stop-color="#06286E"/>
<stop offset="1" stop-color="#164EC0"/>
</linearGradient>
</defs>
</svg>
