<svg width="60" height="61" viewBox="0 0 60 61" fill="none" xmlns="http://www.w3.org/2000/svg">
<path d="M30 0.194092C35.9334 0.194092 41.7336 1.95356 46.6671 5.25C51.6006 8.54644 55.4457 13.2318 57.7164 18.7136C59.987 24.1954 60.5811 30.2274 59.4235 36.0468C58.266 41.8662 55.4088 47.2117 51.2132 51.4073C47.0176 55.6029 41.6721 58.4601 35.8527 59.6176C30.0333 60.7752 24.0013 60.1811 18.5195 57.9105C13.0377 55.6398 8.35235 51.7947 5.05591 46.8612C1.75947 41.9277 1.13708e-06 36.1275 1.13708e-06 30.1941C0.0154517 22.2423 3.18112 14.6207 8.80386 8.99795C14.4266 3.37521 22.0482 0.209542 30 0.194092ZM20.3661 31.8956L31.9046 42.2802C32.3325 42.6651 32.8861 42.8807 33.4615 42.8864C33.782 42.8877 34.0991 42.8215 34.3922 42.6921C34.6854 42.5628 34.948 42.3732 35.1631 42.1356C35.3678 41.912 35.5265 41.6503 35.6301 41.3653C35.7336 41.0803 35.78 40.7778 35.7666 40.4749C35.7532 40.172 35.6802 39.8747 35.5518 39.6C35.4234 39.3254 35.2422 39.0787 35.0185 38.8741L25.3846 30.1941L35.0185 21.511C35.4459 21.0922 35.6939 20.5238 35.7103 19.9256C35.7266 19.3274 35.5099 18.7463 35.106 18.3048C34.702 17.8633 34.1424 17.596 33.5451 17.5593C32.9478 17.5226 32.3596 17.7193 31.9046 18.1079L20.3661 28.4925C20.1302 28.7087 19.9417 28.9717 19.8128 29.2646C19.6839 29.5575 19.6174 29.874 19.6174 30.1941C19.6174 30.5141 19.6839 30.8307 19.8128 31.1236C19.9417 31.4165 20.1302 31.6794 20.3661 31.8956Z" fill="url(#paint0_linear_92_198)"/>
<defs>
<linearGradient id="paint0_linear_92_198" x1="30" y1="0.194092" x2="30" y2="60.1941" gradientUnits="userSpaceOnUse">
<stop stop-color="#06286E"/>
<stop offset="1" stop-color="#164EC0"/>
</linearGradient>
</defs>
</svg>
