<svg width="30" height="31" viewBox="0 0 30 31" fill="none" xmlns="http://www.w3.org/2000/svg">
<path d="M25.591 4.59382C24.2024 3.19579 22.5509 2.08643 20.7315 1.32971C18.9122 0.572997 16.9611 0.183887 14.9906 0.184816C6.69794 0.184816 0 6.90151 0 15.1942C0 23.4869 6.69794 30.2036 14.9906 30.2036C21.9887 30.2036 27.8236 25.4193 29.4934 18.9465H25.591C24.8181 21.1408 23.3834 23.0411 21.4847 24.3853C19.586 25.7295 17.317 26.4513 14.9906 26.4512C8.78049 26.4512 3.73358 21.4043 3.73358 15.1942C3.73358 8.98407 8.78049 3.93716 14.9906 3.93716C18.1051 3.93716 20.8818 5.23172 22.9081 7.27675L16.8668 13.318H30V0.184816L25.591 4.59382Z" fill="url(#paint0_linear_92_196)"/>
<defs>
<linearGradient id="paint0_linear_92_196" x1="15" y1="0.184814" x2="15" y2="30.2036" gradientUnits="userSpaceOnUse">
<stop stop-color="#06286E"/>
<stop offset="1" stop-color="#164EC0"/>
</linearGradient>
</defs>
</svg>
